<?xml version="1.0" encoding="UTF-8" standalone="no"?>
<svg
   xmlns:dc="http://purl.org/dc/elements/1.1/"
   xmlns:cc="http://creativecommons.org/ns#"
   xmlns:rdf="http://www.w3.org/1999/02/22-rdf-syntax-ns#"
   xmlns:svg="http://www.w3.org/2000/svg"
   xmlns="http://www.w3.org/2000/svg"
   xmlns:sodipodi="http://sodipodi.sourceforge.net/DTD/sodipodi-0.dtd"
   xmlns:inkscape="http://www.inkscape.org/namespaces/inkscape"
   class="timeline"
   width="120mm"
   height="120mm"
   viewBox="0 0 120 120"
   version="1.1"
   id="svg8"
   inkscape:version="1.0rc1 (09960d6, 2020-04-09)"
   sodipodi:docname="edit.svg">
  <defs
     id="defs2">
    <rect
       x="114.14881"
       y="160.2619"
       width="3.7797618"
       height="35.529762"
       id="rect20" />
    <rect
       x="89.202377"
       y="148.92262"
       width="26.458332"
       height="24.190475"
       id="rect14" />
  </defs>
  <sodipodi:namedview
     id="base"
     pagecolor="#ffffff"
     bordercolor="#666666"
     borderopacity="1.0"
     inkscape:pageopacity="0.0"
     inkscape:pageshadow="2"
     inkscape:zoom="0.35"
     inkscape:cx="22.857142"
     inkscape:cy="294.28571"
     inkscape:document-units="mm"
     inkscape:current-layer="g35"
     inkscape:document-rotation="0"
     showgrid="false"
     fit-margin-top="0"
     fit-margin-left="0"
     fit-margin-right="0"
     fit-margin-bottom="0"
     inkscape:window-width="1440"
     inkscape:window-height="775"
     inkscape:window-x="0"
     inkscape:window-y="23"
     inkscape:window-maximized="0" />
  <metadata
     id="metadata5">
    <rdf:RDF>
      <cc:Work
         rdf:about="">
        <dc:format>image/svg+xml</dc:format>
        <dc:type
           rdf:resource="http://purl.org/dc/dcmitype/StillImage" />
        <dc:title></dc:title>
      </cc:Work>
    </rdf:RDF>
  </metadata>
  <g
     inkscape:label="レイヤー 1"
     inkscape:groupmode="layer"
     id="layer1"
     transform="translate(-45.357143,-65.011905)">
    <text
       xml:space="preserve"
       id="text12"
       style="font-style:normal;font-weight:normal;font-size:10.58329999999999949px;line-height:1.25;font-family:sans-serif;white-space:pre;shape-inside:url(#rect14);fill:#000000;fill-opacity:1;stroke:none;" />
    <text
       xml:space="preserve"
       id="text18"
       style="font-style:normal;font-weight:normal;font-size:10.58329999999999949px;line-height:1.25;font-family:sans-serif;white-space:pre;shape-inside:url(#rect20);fill:#000000;fill-opacity:1;stroke:none;" />
    <g
       id="g35"
       transform="translate(45.357143,65.011905)">
      <circle
         r="60"
         transform="scale(-1,1)"
         cy="60"
         cx="-60"
         id="path24"
         style="fill:#a9a9a9;fill-rule:evenodd;stroke-width:0.262581" />
      <path
         style="fill:#ffffff;stroke-width:0.127811"
         inkscape:connector-curvature="0"
         fill="currentColor"
         d="m 78.710082,35.325567 11.31713,11.743895 c 0.47677,0.494755 0.47677,1.301982 0,1.796737 l -27.40202,28.435323 -11.64334,1.341044 c -1.5558,0.182275 -2.8732,-1.184806 -2.69755,-2.799264 l 1.29231,-12.08241 27.40202,-28.435325 c 0.47678,-0.49475 1.25467,-0.49475 1.73145,0 z m 20.32567,-2.981543 -6.1228,-6.353677 c -1.9071,-1.979017 -5.00614,-1.979017 -6.92578,0 l -4.44154,4.609022 c -0.47677,0.49475 -0.47677,1.301982 0,1.796737 l 11.31713,11.74389 c 0.47678,0.494755 1.25467,0.494755 1.73145,0 l 4.44154,-4.609022 c 1.907098,-1.992033 1.907098,-5.207933 0,-7.18695 z M 76.376392,69.567739 V 82.821931 H 36.226922 V 41.158457 h 28.83233 c 0.4015,0 0.7779,-0.169258 1.06648,-0.455698 l 5.01868,-5.207933 c 0.95355,-0.989506 0.27603,-2.669067 -1.06647,-2.669067 h -35.8585 c -3.32488,0 -6.02242,2.799264 -6.02242,6.249521 v 45.829828 c 0,3.450253 2.69754,6.249522 6.02242,6.249522 h 44.16442 c 3.32488,0 6.02242,-2.799269 6.02242,-6.249522 V 64.359805 c 0,-1.393123 -1.61852,-2.083174 -2.57208,-1.106687 l -5.01868,5.207935 c -0.27602,0.299456 -0.43913,0.690051 -0.43913,1.106686 z"
         id="path60" />
    </g>
  </g>
</svg>
